<?xml version="1.0" encoding="UTF-8"?>
<svg version="1.1" xmlns="http://www.w3.org/2000/svg" width="800" height="800">
<path d="M0 0 C2.40881283 2.29383936 4.31836858 4.66910933 6.23461914 7.38989258 C6.92040039 8.34895508 7.60618164 9.30801758 8.31274414 10.29614258 C9.98461914 12.88989258 9.98461914 12.88989258 10.98461914 15.88989258 C11.97461914 16.21989258 12.96461914 16.54989258 13.98461914 16.88989258 C14.67211914 18.95239258 14.67211914 18.95239258 14.98461914 20.88989258 C4.79384366 25.36563478 -5.65514045 29.09037377 -16.12612915 32.84747314 C-19.24983345 33.96925414 -22.37148601 35.0965849 -25.49267578 36.2253418 C-34.22459421 39.38088795 -42.95783972 42.53072439 -51.72154236 45.59709167 C-54.73474494 46.65235533 -57.74421252 47.71802367 -60.75332642 48.78488159 C-62.11394342 49.2636665 -63.47651166 49.73694964 -64.84115601 50.20413208 C-72.36213449 52.77936058 -78.71215069 55.5798559 -85.03369141 60.44995117 C-87.01538086 61.88989258 -87.01538086 61.88989258 -90.01538086 62.88989258 C-91.14487307 65.69365609 -91.14487307 65.69365609 -92.01538086 68.88989258 C-92.52584961 70.06032104 -92.52584961 70.06032104 -93.04663086 71.25439453 C-96.7004189 81.19457645 -92.7119579 90.91104857 -89.01538086 100.20239258 C-88.50399447 101.53151746 -87.99491282 102.8615312 -87.48803711 104.19238281 C-86.72244968 106.20191283 -85.95564829 108.21084673 -85.18139648 110.21705627 C-82.98345289 115.91633076 -80.97576201 121.66812844 -79.01538086 127.45239258 C-75.81380418 136.80169537 -72.33305473 146.03478432 -68.79812622 155.26217651 C-65.37044844 164.21726118 -62.11078576 173.21029444 -59.00585938 182.28173828 C-56.03385658 190.93148426 -52.84861759 199.4968466 -49.65136719 208.06542969 C-47.2387437 214.54521897 -44.88971592 221.03927011 -42.64038086 227.57739258 C-39.3741598 237.05836861 -35.82489772 246.42950796 -32.28204346 255.80941772 C-28.7420003 265.18994668 -25.3345486 274.59949231 -22.09375 284.08837891 C-19.22772838 292.41635518 -16.12960263 300.65258376 -13.01538086 308.88989258 C-9.56447047 318.01776356 -6.16973716 327.15410445 -3.01538086 336.38989258 C0.16066971 345.68871439 3.57562505 354.88599086 7.04711914 364.07739258 C10.30088155 372.69354832 13.54481745 381.30692598 16.54711914 390.01489258 C19.16810386 397.61055975 21.89631584 405.16191045 24.67211914 412.70239258 C30.44029139 428.37225052 36.14029773 444.06659475 41.83956909 459.7616272 C46.53585126 472.69165513 51.24331154 485.61731936 55.99633789 498.52661133 C56.59950584 500.16524895 56.59950584 500.16524895 57.21485901 501.83699036 C59.10570842 506.97210054 60.99927115 512.10618776 62.89697266 517.23876953 C63.58804638 519.11191306 64.2787272 520.9852016 64.96899414 522.85864258 C65.46845802 524.21284554 65.46845802 524.21284554 65.97801208 525.59440613 C67.73862586 530.3956725 69.44845911 535.21005576 71.09985352 540.05004883 C71.44985413 541.07360474 71.79985474 542.09716064 72.16046143 543.1517334 C72.82052186 545.09179577 73.47448927 547.03394774 74.12078857 548.9786377 C76.01110674 554.54159922 78.26444189 559.69415556 81.02435303 564.88391113 C81.98461914 566.88989258 81.98461914 566.88989258 81.98461914 568.88989258 C82.64461914 568.88989258 83.30461914 568.88989258 83.98461914 568.88989258 C84.04649414 569.50864258 84.10836914 570.12739258 84.17211914 570.76489258 C84.79521148 573.11193467 84.79521148 573.11193467 87.23461914 574.01489258 C88.14211914 574.30364258 89.04961914 574.59239258 89.98461914 574.88989258 C90.80961914 575.24051758 91.63461914 575.59114258 92.48461914 575.95239258 C102.96057958 579.88087774 112.61943829 577.89023473 122.74243164 574.03442383 C123.85811523 573.62581619 124.97379883 573.21720856 126.12329102 572.79621887 C129.1573195 571.6812974 132.18502157 570.55093696 135.21067047 569.41352081 C138.43882448 568.20462481 141.67474714 567.01688041 144.90991211 565.8269043 C150.29431904 563.84352823 155.67435342 561.84872911 161.05102539 559.84448242 C171.90561447 555.79836373 182.77636997 551.79617363 193.6463623 547.79165649 C197.12274307 546.51005431 200.59818073 545.22592075 204.07348633 543.94140625 C226.13837257 535.79356471 248.27197457 527.84004517 270.41716576 519.91366577 C275.86533616 517.96331039 281.31113246 516.00638214 286.75634766 514.04779053 C289.78386777 512.96189693 292.81456212 511.88534757 295.84594727 510.81030273 C297.556383 510.19662357 299.2666811 509.5825606 300.97680664 508.96801758 C301.72151215 508.70727448 302.46621765 508.44653137 303.23348999 508.17788696 C315.4221549 503.76111164 323.52506486 494.38369107 328.98461914 482.88989258 C329.64461914 482.55989258 330.30461914 482.22989258 330.98461914 481.88989258 C331.35279358 480.56575645 331.67494225 479.22891801 331.98461914 477.88989258 C332.91673465 475.41727479 333.87106866 472.9645689 334.85961914 470.51489258 C335.11614258 469.8677832 335.37266602 469.22067383 335.63696289 468.55395508 C337.23964282 464.55933575 339.03053118 460.72845721 340.98461914 456.88989258 C342.22927615 454.27213904 343.44830994 451.64244729 344.67211914 449.01489258 C347.34373312 443.29372294 350.11112846 437.63697043 352.98461914 432.01489258 C356.36843995 425.36688519 359.28160697 418.57150381 362.12524414 411.67773438 C364.33889335 406.33806824 366.77014114 401.18044371 369.42211914 396.04223633 C371.40346088 392.04487936 373.19283083 387.97495116 374.98461914 383.88989258 C377.58320641 377.9792138 380.28900237 372.1647648 383.21899414 366.40942383 C387.61832102 357.63996914 391.81492932 348.77037699 395.98461914 339.88989258 C396.46439209 338.87354736 396.46439209 338.87354736 396.95385742 337.83666992 C400.06575837 331.17150327 401.8551856 325.26760452 401.98461914 317.88989258 C402.01297852 316.77485352 402.04133789 315.65981445 402.07055664 314.51098633 C401.84261984 304.90655855 398.82818987 295.87878521 395.24243164 287.05395508 C393.6593616 283.07169813 392.35625938 279.02433979 391.07446289 274.93676758 C390.1960018 272.48085486 389.23220431 270.18951315 388.14868164 267.82348633 C385.55482314 262.07409528 383.50671039 256.15135984 381.42211914 250.20239258 C380.5417549 247.71239479 379.66050731 245.2227332 378.77758789 242.73364258 C378.55096466 242.09405106 378.32434143 241.45445953 378.09085083 240.79548645 C375.52802585 233.57727373 372.88247825 226.38974753 370.23461914 219.20239258 C367.04314711 210.5364666 363.87466898 201.86574861 360.85449219 193.13842773 C359.28254731 188.62475926 357.51703751 184.22642741 355.55102539 179.87036133 C354.87683737 177.51302803 355.19715382 176.18023288 355.98461914 173.88989258 C356.9140332 174.04329102 357.84344727 174.19668945 358.80102539 174.35473633 C363.82068503 175.07183056 368.86049848 175.24134756 373.92211914 175.45239258 C375.37714844 175.51716797 375.37714844 175.51716797 376.86157227 175.58325195 C379.23580515 175.68851351 381.61012835 175.79064965 383.98461914 175.88989258 C399.91109466 218.3468089 399.91109466 218.3468089 406.02880859 236.33520508 C408.55415562 243.73491726 411.28369414 251.03844006 414.10107422 258.33129883 C417.32399499 266.69941416 420.29405496 275.14498926 423.1940918 283.62963867 C423.92770731 285.72717184 424.70199171 287.80302953 425.49633789 289.87817383 C432.57821412 309.09461162 431.04852049 329.94557407 422.55688477 348.52709961 C421.36880401 351.02849481 420.14972791 353.51338254 418.91674805 355.99291992 C417.3397016 359.20236227 415.85718985 362.45533104 414.35961914 365.70239258 C412.02417858 370.72830198 409.59509909 375.69843223 407.09399414 380.64379883 C405.66939778 383.52810483 404.3725836 386.45922677 403.08227539 389.40551758 C400.15607285 396.02852404 397.17102324 402.63710271 393.85961914 409.07739258 C392.47365209 411.79862056 391.32285657 414.53681793 390.23461914 417.38989258 C388.47136671 421.91211647 386.37332435 426.19566421 384.17211914 430.51489258 C381.38441575 435.9865226 378.78046772 441.4962173 376.35961914 447.13989258 C373.88666568 452.90500455 371.22370635 458.52447401 368.37524414 464.11645508 C366.61494367 467.62716669 365.00637893 471.19584591 363.39477539 474.77661133 C354.27753061 494.90526532 345.6236722 513.78051517 326.98461914 526.88989258 C324.62915039 527.66333008 324.62915039 527.66333008 322.98461914 527.88989258 C322.98461914 528.54989258 322.98461914 529.20989258 322.98461914 529.88989258 C322.30939713 530.13140549 321.63417511 530.3729184 320.93849182 530.62174988 C312.13990745 533.76956144 303.34291217 536.92179076 294.54711914 540.07739258 C293.82634186 540.33598053 293.10556458 540.59456848 292.36294556 540.86099243 C271.70100345 548.2752624 251.07160875 555.76950717 230.48461914 563.38989258 C206.87806659 572.12781974 183.20858356 580.68084992 159.51000977 589.1652832 C157.57801739 589.85714966 155.64603636 590.54904775 153.71406555 591.24097443 C151.86196498 591.90409864 150.00965823 592.5666469 148.15734863 593.22918701 C140.34213512 596.02917017 132.5426999 598.8685909 124.7796936 601.81063843 C110.01592657 607.33858947 94.0770345 607.39184261 79.59790039 600.80395508 C77.70636157 599.87304068 75.84193442 598.88733967 73.98461914 597.88989258 C73.98461914 597.22989258 73.98461914 596.56989258 73.98461914 595.88989258 C72.33461914 595.22989258 70.68461914 594.56989258 68.98461914 593.88989258 C68.98461914 593.22989258 68.98461914 592.56989258 68.98461914 591.88989258 C68.40969727 591.67204102 67.83477539 591.45418945 67.24243164 591.22973633 C64.25586249 589.45742972 62.84209124 587.29041822 60.85961914 584.45239258 C60.17641602 583.48430664 59.49321289 582.5162207 58.78930664 581.51879883 C54.98461914 575.97647266 54.98461914 575.97647266 54.98461914 572.88989258 C54.32461914 572.88989258 53.66461914 572.88989258 52.98461914 572.88989258 C52.72358398 572.12136963 52.46254883 571.35284668 52.19360352 570.56103516 C45.37856757 550.49014759 45.37856757 550.49014759 37.93774414 530.64501953 C35.74773093 525.04415896 33.74972988 519.38651958 31.77758789 513.70629883 C27.83924452 502.37455491 23.67011456 491.13221927 19.48461914 479.88989258 C15.03760428 467.94511931 10.63901347 455.99237449 6.46043396 443.95075989 C4.01726051 436.92990477 1.42903426 429.9704437 -1.21365356 423.02264404 C-4.96626672 413.14777027 -8.65006015 403.25807403 -12.07788086 393.26489258 C-16.01673512 381.79118962 -20.19696396 370.41121748 -24.38999939 359.02845764 C-28.07359291 349.02362465 -31.73146047 339.0093617 -35.39096069 328.99569702 C-36.60215754 325.68196823 -37.81422688 322.36855955 -39.02636719 319.05517578 C-43.3660187 307.18586463 -47.67341744 295.30551458 -51.9478302 283.41255188 C-54.54589771 276.1858675 -57.17132116 268.97030078 -59.82788086 261.76489258 C-65.55161723 246.19772079 -71.20954453 230.60673652 -76.87088013 215.01678467 C-81.56697624 202.08721311 -86.2742434 189.1620037 -91.02709961 176.25317383 C-91.42921158 175.16074875 -91.83132355 174.06832367 -92.24562073 172.9427948 C-94.13647014 167.80768461 -96.03003287 162.6735974 -97.92773438 157.54101562 C-101.80478989 147.03493119 -105.585702 136.50305858 -109.20648193 125.90551758 C-111.12980947 120.30709462 -113.18982419 114.78085438 -115.37091064 109.27757263 C-121.89412538 92.79994314 -125.33595497 76.01978141 -118.07788086 59.13989258 C-113.44302426 49.00700771 -106.20610007 39.71707536 -96.01538086 34.88989258 C-94.37554743 33.95852533 -92.73728808 33.02438434 -91.10009766 32.08837891 C-84.97086603 28.7363281 -78.67584512 26.34256364 -72.09741211 24.02661133 C-70.23893049 23.35920514 -68.38044931 22.69179773 -66.52199078 22.02432728 C-63.94076112 21.0998871 -61.35657422 20.18386998 -58.7723999 19.2677002 C-54.94900577 17.91038868 -51.1294239 16.54239804 -47.31004143 15.17384529 C-44.18445159 14.05395973 -41.05753153 12.93817451 -37.92800903 11.82931519 C-31.90261262 9.68622254 -25.91795167 7.48112011 -19.9777832 5.11108398 C-18.87673752 4.67697708 -17.77569183 4.24287018 -16.64128113 3.79560852 C-14.57721872 2.97614837 -12.51993962 2.13931433 -10.47114563 1.28239441 C-3.7395455 -1.37670742 -3.7395455 -1.37670742 0 0 Z " fill="#46B449" transform="translate(212.015380859375,173.110107421875)"/>
<path d="M0 0 C0.62648438 0.42023438 1.25296875 0.84046875 1.8984375 1.2734375 C4.00064551 2.77738869 6.00172387 4.36038882 8 6 C8.80695313 6.66 9.61390625 7.32 10.4453125 8 C18.32810744 14.74979383 24.73818124 22.47281494 29 32 C29 32.99 29 33.98 29 35 C29.66 35 30.32 35 31 35 C31.24943359 35.71389893 31.49886719 36.42779785 31.75585938 37.16333008 C38.36493673 56.03390709 45.22386059 74.80216352 52.25195312 93.52075195 C55.77879737 102.92938278 59.20716386 112.36268445 62.50196838 121.85517883 C64.26645003 126.93114575 66.07530981 131.98684862 67.94921875 137.0234375 C68.63274414 138.86228516 68.63274414 138.86228516 69.33007812 140.73828125 C70.24413797 143.18717251 71.1608571 145.63507263 72.08007812 148.08203125 C80.73743018 171.4235368 86.11054833 193.78543745 75.90625 217.546875 C73.3187567 223.02041852 70.36410661 228.72518458 66 233 C63.81640625 233.71484375 63.81640625 233.71484375 62 234 C62 234.66 62 235.32 62 236 C54.12539303 241.68141032 45.26383385 245.06417643 36.1640625 248.22265625 C34.84835289 248.68954157 33.53304986 249.157574 32.21812439 249.62666321 C28.74016175 250.86433407 25.2573805 252.08783172 21.77336502 253.30834198 C18.16490505 254.57504899 14.56088143 255.85423562 10.95678711 257.13330078 C10.24115066 257.38725365 9.5255142 257.64120651 8.7881918 257.90285492 C7.34784114 258.41399957 5.90750645 258.9251892 4.46718788 259.43642426 C2.3228003 260.19695104 0.17783324 260.95582429 -1.96723938 261.7144165 C-10.12068276 264.60078132 -18.24963248 267.54276763 -26.34765625 270.58203125 C-27.23855957 270.91568192 -28.12946289 271.24933258 -29.04736328 271.59309387 C-32.27963777 272.80571332 -35.51104393 274.02005009 -38.73480225 275.25515747 C-46.14229055 278.09293189 -53.00282894 280.65761347 -61 281 C-62.32644531 281.10054687 -62.32644531 281.10054687 -63.6796875 281.203125 C-78.93655846 281.52889449 -91.70012097 274.40924474 -102.75390625 264.4140625 C-104 263 -104 263 -104 261 C-104.59167969 260.74605469 -105.18335938 260.49210937 -105.79296875 260.23046875 C-123.29532214 250.47251951 -131.4277871 211.34316104 -137.66854858 193.83425903 C-139.62839599 188.33607276 -141.60040664 182.84224488 -143.5703125 177.34765625 C-143.95521347 176.27295578 -144.34011444 175.19825531 -144.73667908 174.09098816 C-147.85040813 165.40126162 -151.00317881 156.72657636 -154.1875 148.0625 C-154.6198999 146.88276611 -155.0522998 145.70303223 -155.49780273 144.48754883 C-157.31902632 139.52784194 -159.15492408 134.57530827 -161.04296875 129.640625 C-169.75553755 106.80286047 -176.48113832 83.17074961 -166.5234375 59.48828125 C-161.18032906 47.69864743 -153.72771713 38.13562284 -141.57543945 33.07470703 C-140.96500196 32.82002718 -140.35456446 32.56534733 -139.72562885 32.30294991 C-133.15827045 29.59488793 -126.48657889 27.18046798 -119.79296875 24.8046875 C-118.46674181 24.33018763 -117.14066527 23.85526723 -115.81472778 23.37995911 C-112.32363587 22.12965643 -108.83074513 20.884464 -105.33731461 19.64071274 C-99.56725831 17.58555617 -93.79973466 15.52329007 -88.03198051 13.46168327 C-86.61167116 12.95410715 -85.19128789 12.44673781 -83.77083015 11.9395771 C-75.46652649 8.97423952 -67.17463954 5.9800887 -58.9140625 2.89453125 C-58.1416774 2.60731201 -57.3692923 2.32009277 -56.57350159 2.02416992 C-53.25238801 0.78866259 -49.93644478 -0.45666322 -46.62768555 -1.72509766 C-31.34080057 -7.42230596 -14.3286164 -9.61783841 0 0 Z M-38 25 C-35.433485 32.13896326 -32.86092342 39.2757222 -30.28059578 46.40970421 C-29.08267443 49.72226361 -27.88685902 53.03555203 -26.69580078 56.35058594 C-25.32684664 60.16046443 -23.9488391 63.96701205 -22.5703125 67.7734375 C-22.14315948 68.96617279 -21.71600647 70.15890808 -21.27590942 71.38778687 C-20.67551346 73.03927231 -20.67551346 73.03927231 -20.06298828 74.72412109 C-19.71213165 75.69674896 -19.36127502 76.66937683 -18.99978638 77.67147827 C-18.11265896 80.13451975 -18.11265896 80.13451975 -16 82 C-10.88803756 80.19443862 -5.77954476 78.37949608 -0.67407227 76.55566406 C1.06425701 75.93619027 2.80351585 75.31931871 4.54370117 74.70507812 C7.04072387 73.8231903 9.53428531 72.93208568 12.02734375 72.0390625 C12.80963852 71.76502594 13.59193329 71.49098938 14.39793396 71.20864868 C18.43218543 70.02846003 18.43218543 70.02846003 21 67 C20.54868678 65.16526941 20.54868678 65.16526941 19.70703125 63.1484375 C19.40603516 62.37886719 19.10503906 61.60929687 18.79492188 60.81640625 C18.47072266 60.01074219 18.14652344 59.20507812 17.8125 58.375 C17.50763672 57.59253906 17.20277344 56.81007813 16.88867188 56.00390625 C11.41804534 42.17251087 3.53892039 26.76067468 -10.5625 20.0625 C-20.36564333 17.03243752 -30.57653898 17.15740871 -38 25 Z M-65.95922852 32.04785156 C-66.56929245 32.26575851 -67.17935638 32.48366547 -67.8079071 32.70817566 C-69.83274362 33.43243861 -71.85585991 34.16137794 -73.87890625 34.890625 C-75.28931824 35.39688844 -76.69979589 35.90296899 -78.1103363 36.40887451 C-81.07439331 37.47280901 -84.0376001 38.53907109 -87.00024414 39.60693359 C-90.77547156 40.96746238 -94.55276922 42.32213157 -98.33075047 43.67499161 C-101.2495052 44.72094953 -104.16708263 45.77016049 -107.08433342 46.82030487 C-108.47486225 47.32041608 -109.8657513 47.81952697 -111.25702095 48.31757355 C-132.12897734 55.15533825 -132.12897734 55.15533825 -146.125 71.0625 C-150.59357368 81.61818586 -151.14316913 93.02940829 -148.1875 104 C-148.00735352 104.69480469 -147.82720703 105.38960938 -147.64160156 106.10546875 C-146.37758516 110.87517314 -144.89645209 115.44851499 -143 120 C-142.34 120 -141.68 120 -141 120 C-140.87625 120.969375 -140.7525 121.93875 -140.625 122.9375 C-140.315625 124.4534375 -140.315625 124.4534375 -140 126 C-138.08451043 127.22733083 -138.08451043 127.22733083 -136.19192505 126.55752563 C-135.4623056 126.29184784 -134.73268616 126.02617004 -133.98095703 125.75244141 C-132.7392424 125.30670273 -132.7392424 125.30670273 -131.47244263 124.85195923 C-130.57661469 124.52182831 -129.68078674 124.19169739 -128.7578125 123.8515625 C-127.8378952 123.51957855 -126.91797791 123.1875946 -125.97018433 122.84555054 C-123.01915672 121.77914347 -120.07200048 120.70248056 -117.125 119.625 C-114.18447734 118.55659249 -111.24319896 117.49031602 -108.30123901 116.4258728 C-106.4683145 115.76196706 -104.63634829 115.09540839 -102.80545044 114.42593384 C-101.97133636 114.1224704 -101.13722229 113.81900696 -100.27783203 113.50634766 C-99.5466214 113.23907867 -98.81541077 112.97180969 -98.06204224 112.69644165 C-93.60346679 111.19058615 -89.74136611 110.50090883 -85 111 C-75.25593976 117.49604016 -71.99525727 136.10510978 -68.21463013 146.64877319 C-66.33788226 151.88258962 -64.45153035 157.112946 -62.56640625 162.34375 C-62.18393234 163.40583176 -61.80145844 164.46791351 -61.40739441 165.56217957 C-57.35710811 176.80159941 -53.24764402 188.01915688 -49.12716675 199.23300171 C-46.00954745 207.71872767 -42.90857879 216.20821294 -39.9140625 224.73828125 C-39.67753464 225.41009933 -39.44100677 226.08191742 -39.1973114 226.77409363 C-38.11094843 229.86140627 -37.03226855 232.95097547 -35.96704102 236.0456543 C-35.41681274 237.61633667 -35.41681274 237.61633667 -34.85546875 239.21875 C-34.38596802 240.5790332 -34.38596802 240.5790332 -33.90698242 241.96679688 C-33.18005611 244.17440923 -33.18005611 244.17440923 -31 245 C-29.00002813 244.5443165 -29.00002813 244.5443165 -26.74975586 243.69238281 C-25.87222153 243.38165833 -24.99468719 243.07093384 -24.09056091 242.75079346 C-23.14157425 242.40506287 -22.19258759 242.05933228 -21.21484375 241.703125 C-19.75770714 241.17897003 -19.75770714 241.17897003 -18.27113342 240.64422607 C-16.21441338 239.90149551 -14.1591453 239.15473398 -12.10522461 238.40429688 C-8.95204078 237.25529856 -5.79195802 236.1270111 -2.63085938 235 C-0.63756682 234.27729265 1.35528729 233.55337464 3.34765625 232.828125 C4.29866714 232.49049133 5.24967804 232.15285767 6.22950745 231.80499268 C7.10388962 231.48165955 7.97827179 231.15832642 8.87915039 230.82519531 C9.65255264 230.54460266 10.4259549 230.26401001 11.22279358 229.97491455 C13.35525113 229.06701983 13.35525113 229.06701983 14 226 C13.14100863 222.94671857 13.14100863 222.94671857 11.75390625 219.515625 C11.50796722 218.87234756 11.2620282 218.22907013 11.00863647 217.56629944 C10.47812449 216.18099534 9.94350573 214.79725846 9.40524292 213.41494751 C7.98314674 209.76168207 6.59079576 206.09708856 5.1953125 202.43359375 C4.91632614 201.7034758 4.63733978 200.97335785 4.34989929 200.22111511 C2.09113004 194.29179886 -0.02186577 188.3204282 -2.0625 182.3125 C-5.04487005 173.57391967 -8.262421 164.93508994 -11.5625 156.3125 C-14.89197434 147.61267082 -18.13628743 138.90143995 -21.15869141 130.09033203 C-24.10472381 121.5683106 -27.28129982 113.13327332 -30.4375 104.6875 C-34.08331558 94.92988734 -37.69460642 85.17045461 -41.0625 75.3125 C-44.34643594 65.70447781 -47.86867498 56.19247633 -51.4375 46.6875 C-51.7072464 45.96825348 -51.9769928 45.24900696 -52.25491333 44.50796509 C-54.87889982 37.14607255 -54.87889982 37.14607255 -58 30 C-60.90952256 30 -63.22085187 31.06551434 -65.95922852 32.04785156 Z M19.9296875 95.84375 C18.73534592 96.27657288 18.73534592 96.27657288 17.51687622 96.71813965 C14.96848846 97.64244058 12.4217389 98.57116678 9.875 99.5 C8.14984548 100.12659372 6.42458635 100.75289951 4.69921875 101.37890625 C0.46492378 102.91592971 -3.76790699 104.45692446 -8 106 C-4.60385201 116.49264647 -1.13703315 126.95062997 2.8125 137.25 C3.1019751 138.01747559 3.3914502 138.78495117 3.68969727 139.57568359 C4.97606414 143.50023053 4.97606414 143.50023053 8 146 C10.74086245 145.16197742 13.38811883 144.25315521 16.0703125 143.25390625 C16.86654022 142.96394272 17.66276794 142.67397919 18.48312378 142.37522888 C21.03307745 141.44474914 23.57900977 140.50376376 26.125 139.5625 C27.85000643 138.93094646 29.57526387 138.30007807 31.30078125 137.66992188 C35.53681097 136.12122533 39.76926296 134.56309418 44 133 C42.76027666 127.76497168 41.30053427 122.7816317 39.43359375 117.7265625 C39.07516136 116.75183487 39.07516136 116.75183487 38.70948792 115.75741577 C38.20970635 114.40055209 37.70797548 113.04440489 37.2043457 111.68896484 C36.43214333 109.61058253 35.66576681 107.53012342 34.90039062 105.44921875 C32.67608609 99.12851539 32.67608609 99.12851539 30 93 C26.47497606 93 23.21217151 94.6426638 19.9296875 95.84375 Z M-103.4765625 140.484375 C-104.56534195 140.86967377 -104.56534195 140.86967377 -105.67611694 141.26275635 C-107.20857588 141.80812435 -108.74001916 142.3563535 -110.27050781 142.90722656 C-112.61801307 143.74749908 -114.97265292 144.56518623 -117.328125 145.3828125 C-118.81559956 145.91528479 -120.30259631 146.44909415 -121.7890625 146.984375 C-122.8499559 147.34713531 -122.8499559 147.34713531 -123.93228149 147.71722412 C-127.59189723 149.00061937 -127.59189723 149.00061937 -130.07470703 151.81469727 C-129.97145245 154.83506253 -129.10116055 157.15889672 -128.015625 159.98046875 C-127.57476562 161.14513672 -127.13390625 162.30980469 -126.6796875 163.50976562 C-126.20789063 164.72341797 -125.73609375 165.93707031 -125.25 167.1875 C-124.33726614 169.57633595 -123.42578173 171.96564971 -122.515625 174.35546875 C-121.8649707 176.05582275 -121.8649707 176.05582275 -121.20117188 177.79052734 C-119.68982799 181.82876447 -118.32232303 185.89639087 -117 190 C-108.36956803 187.85592366 -100.12536773 184.95391255 -91.8125 181.8125 C-90.56201634 181.34395408 -89.3113661 180.87585249 -88.06054688 180.40820312 C-85.03870583 179.27647115 -82.01860349 178.14033289 -79 177 C-83.26367211 163.8270746 -87.83860116 150.84858861 -93 138 C-96.80881833 138 -99.93370783 139.22516914 -103.4765625 140.484375 Z M52 158 C34.18 164.435 34.18 164.435 16 171 C18.30814766 178.76789237 18.30814766 178.76789237 20.83203125 186.4453125 C21.15284668 187.37005371 21.47366211 188.29479492 21.80419922 189.24755859 C22.13693848 190.19711426 22.46967773 191.14666992 22.8125 192.125 C23.16070801 193.11967285 23.50891602 194.1143457 23.86767578 195.13916016 C24.9064647 198.09468831 25.9514013 201.04793921 27 204 C27.30437988 204.85787109 27.60875977 205.71574219 27.92236328 206.59960938 C28.73020498 208.86174901 29.54943573 211.11927704 30.375 213.375 C30.61323486 214.04031738 30.85146973 214.70563477 31.09692383 215.39111328 C32.22279669 218.87087573 32.22279669 218.87087573 35 221 C42.13014758 219.08556291 48.19165776 214.49524827 53 209 C53.7872678 206.8618034 53.7872678 206.8618034 54 205 C54.66 205 55.32 205 56 205 C56.65161012 203.12699975 57.29602195 201.2514945 57.9375 199.375 C58.47697266 197.80878906 58.47697266 197.80878906 59.02734375 196.2109375 C60.81013961 190.32556321 61.11077796 185.32986537 60.3125 179.25 C60.17702759 178.19872925 60.17702759 178.19872925 60.03881836 177.1262207 C58.98862651 169.80519604 57.32804648 163.32804648 52 158 Z M-78.97265625 204.84375 C-80.16912025 205.27657288 -80.16912025 205.27657288 -81.38975525 205.71813965 C-83.94787973 206.64393499 -86.50519496 207.57194382 -89.0625 208.5 C-90.79226502 209.12644757 -92.52208205 209.75275157 -94.25195312 210.37890625 C-98.50190826 211.91760286 -102.7511387 213.45828565 -107 215 C-103.05770401 228.74045948 -97.53425746 239.25953274 -87 249 C-85.515 249.495 -85.515 249.495 -84 250 C-84 250.66 -84 251.32 -84 252 C-75.59641936 255.70551587 -67.26623998 258.05916101 -58.2421875 255.09375 C-56.09388916 254.15092314 -54.06050383 253.11656953 -52 252 C-54.30374791 243.92412238 -57.0419422 236.02863574 -59.875 228.125 C-60.29652344 226.93519531 -60.71804688 225.74539063 -61.15234375 224.51953125 C-63.87222498 216.9088544 -66.81221174 209.42681402 -70 202 C-72.89660645 202 -76.22893355 203.8464244 -78.97265625 204.84375 Z " fill="#46B449" transform="translate(442,337)"/>
<path d="M0 0 C1.62479969 0.29278046 3.24980545 0.58441933 4.875 0.875 C37.08014067 7.28550194 68.57693008 28.83827677 87.640625 55.23828125 C88.93998896 57.01833823 88.93998896 57.01833823 90.50390625 58.4140625 C92.41446943 60.43935924 93.46350334 62.56672302 94.6875 65.0625 C95.12449219 65.94035156 95.56148438 66.81820312 96.01171875 67.72265625 C97 70 97 70 97 72 C97.66 72 98.32 72 99 72 C105.0758442 85.08891968 110.22974267 98.38329279 115 112 C123.34064573 109.63799338 131.47460791 106.75494383 139.625 103.8125 C140.92829961 103.34416219 142.2316845 102.87606163 143.53515625 102.40820312 C146.69094727 101.27445598 149.8458626 100.1383377 153 99 C154.17309874 102.51929621 153.84164244 102.97573243 152.3125 106.1875 C151.81169922 107.26064453 151.81169922 107.26064453 151.30078125 108.35546875 C150.25223712 110.48719359 149.19150321 112.61163608 148.125 114.734375 C145.91394375 119.14669722 143.79379352 123.59940494 141.6875 128.0625 C141.29578613 128.89104492 140.90407227 129.71958984 140.50048828 130.57324219 C137.26364971 137.42632897 134.05273358 144.2912308 130.85595703 151.16308594 C129.95727721 153.09168461 129.05519483 155.01866326 128.15234375 156.9453125 C124.51531782 164.69481516 124.51531782 164.69481516 121 172.5 C118.41822388 178.36667424 115.67363238 184.15873483 112.95410156 189.96240234 C111.31991736 193.45239757 109.69153406 196.94509869 108.0625 200.4375 C107.47007765 201.70704318 106.87763217 202.97657557 106.28515625 204.24609375 C105.86105469 205.15488281 105.43695313 206.06367188 105 207 C100.3089655 206.44439022 96.85781588 205.13003733 92.6875 202.9375 C91.44753371 202.29769472 90.20660476 201.6597525 88.96484375 201.0234375 C88.31757324 200.69053711 87.67030273 200.35763672 87.00341797 200.01464844 C83.61620597 198.29916549 80.18629874 196.67689255 76.75 195.0625 C76.04713867 194.73209717 75.34427734 194.40169434 74.62011719 194.0612793 C68.53171078 191.2170452 62.39680267 188.48032608 56.23925781 185.78930664 C51.41457912 183.67114146 46.69171462 181.39778553 42 179 C37.90231282 176.90966842 37.90231282 176.90966842 33.6875 175.078125 C24.62299885 171.44178442 15.88370949 167.00769933 7.20581055 162.54052734 C3.77814087 160.6485301 3.77814087 160.6485301 0 160 C0 159.34 0 158.68 0 158 C-0.99 157.67 -1.98 157.34 -3 157 C0.47581086 153.99568367 4.3387133 152.58641731 8.609375 151.08203125 C9.33618469 150.81992355 10.06299438 150.55781586 10.81182861 150.2877655 C13.12229212 149.45621295 15.43603238 148.63424469 17.75 147.8125 C19.32184075 147.248677 20.89345807 146.68423068 22.46484375 146.11914062 C26.30734541 144.73886092 30.15281317 143.36716377 34 142 C32.92323844 138.85187967 31.83736191 135.70697312 30.75 132.5625 C30.44964844 131.68400391 30.14929688 130.80550781 29.83984375 129.90039062 C28.05589068 124.75729187 26.09347516 119.80257595 23.74316406 114.89038086 C23 113 23 113 23 110 C22.34 110 21.68 110 21 110 C21 108.68 21 107.36 21 106 C20.34 106 19.68 106 19 106 C17.7109375 104.3203125 17.7109375 104.3203125 16.375 102.125 C15.92898437 101.40570313 15.48296875 100.68640625 15.0234375 99.9453125 C14 98 14 98 14 96 C13.34 96 12.68 96 12 96 C11.67 94.68 11.34 93.36 11 92 C10.34 92 9.68 92 9 92 C9 91.34 9 90.68 9 90 C8.34 90 7.68 90 7 90 C6.7525 89.195625 6.505 88.39125 6.25 87.5625 C5.63125 86.2940625 5.63125 86.2940625 5 85 C2.97536745 84.34786708 2.97536745 84.34786708 1 84 C0.67 83.01 0.34 82.02 0 81 C-1.30835222 80.28555148 -2.64807016 79.62809866 -4 79 C-5.74696194 77.75374211 -7.47461597 76.48019603 -9.1875 75.1875 C-26.3862686 62.58416957 -45.79481177 56.63959965 -67 56 C-68.06992188 55.92523438 -69.13984375 55.85046875 -70.2421875 55.7734375 C-90.08132932 54.88651116 -113.49924841 62.45023237 -129.14453125 74.67578125 C-131 76 -131 76 -133 76 C-133.495 77.485 -133.495 77.485 -134 79 C-139.46511628 84 -139.46511628 84 -142 84 C-142 84.66 -142 85.32 -142 86 C-142.66 86 -143.32 86 -144 86 C-144.268125 86.5775 -144.53625 87.155 -144.8125 87.75 C-146.02929189 90.05550043 -147.30333879 92.02056192 -149 94 C-149.66 94 -150.32 94 -151 94 C-151.33 95.32 -151.66 96.64 -152 98 C-152.66 98 -153.32 98 -154 98 C-154.35771484 98.98613281 -154.35771484 98.98613281 -154.72265625 99.9921875 C-156.04268468 103.10051134 -157.59000227 105.97421728 -159.22412109 108.92480469 C-163.21495077 116.16129504 -166.33321532 122.85656628 -168 131 C-168.26296875 132.04671875 -168.5259375 133.0934375 -168.796875 134.171875 C-171.70548298 145.8611863 -172.15785929 156.98515426 -172 169 C-173.32 168.67 -174.64 168.34 -176 168 C-176.88721905 159.15435465 -177.18283718 150.38734326 -177.1875 141.5 C-177.19974609 140.27152344 -177.21199219 139.04304687 -177.22460938 137.77734375 C-177.25386026 119.38828457 -172.99007744 96.79582924 -163 81 C-162.21351464 79.44531963 -161.44271028 77.88261073 -160.6875 76.3125 C-153.51075605 61.87331964 -143.81864288 48.9940864 -132 38 C-131.34 38 -130.68 38 -130 38 C-129.78988281 37.43796875 -129.57976562 36.8759375 -129.36328125 36.296875 C-127.53305731 33.21328853 -125.01629866 31.35943079 -122.1875 29.25 C-121.61435059 28.81606934 -121.04120117 28.38213867 -120.45068359 27.93505859 C-114.54801346 23.5390422 -108.34771449 19.72284877 -102 16 C-101.25234375 15.54367188 -100.5046875 15.08734375 -99.734375 14.6171875 C-96.92013201 12.9262768 -95.34670642 12 -92 12 C-92 11.34 -92 10.68 -92 10 C-69.41162282 1.32283108 -69.41162282 1.32283108 -58 0 C-56.26764168 -0.33821004 -54.53826856 -0.69212958 -52.8125 -1.0625 C-35.70991773 -4.51016341 -16.98278602 -3.92581526 0 0 Z " fill="#442A02" transform="translate(226,78)"/>
<path d="M0 0 C0.63212402 0.21430664 1.26424805 0.42861328 1.91552734 0.64941406 C10.91281708 3.7609862 23.11681729 8.11681729 30 15 C30.45378151 20.21848739 30.45378151 20.21848739 28.875 22.9375 C26.02278442 24.55375549 24.14622086 23.7266272 21 23 C18.84150273 22.05204682 16.71469447 21.02878489 14.625 19.9375 C13.56539062 19.38964844 12.50578125 18.84179688 11.4140625 18.27734375 C10.61742187 17.85582031 9.82078125 17.43429688 9 17 C9.42410156 17.51046875 9.84820313 18.0209375 10.28515625 18.546875 C23 34.30769231 23 34.30769231 23 41 C28.94 40.67 34.88 40.34 41 40 C39.865625 38.96875 38.73125 37.9375 37.5625 36.875 C35.08983571 34.39732016 34.04296979 33.12413495 32.875 29.75 C33 27 33 27 34 25.0625 C36 24 36 24 39.1875 23.8125 C51.56055796 27.6664033 60.4129321 45.09575853 66.22900391 56.1027832 C78.18843173 79.96942768 82.05377682 111.24947248 73.74511719 136.90820312 C62.814403 167.59442827 42.83032641 191.70846452 13.19140625 205.86376953 C8.87773228 207.8292742 4.48763585 209.47857362 0 211 C-1.20011719 211.41507813 -2.40023437 211.83015625 -3.63671875 212.2578125 C-30.78243861 220.56079735 -61.1095117 214.96876727 -85.75 202.125 C-112.22253504 186.99225102 -131.53224155 162.229365 -139.97753906 132.89916992 C-147.18738274 104.10359334 -141.58013993 74.10719209 -127.125 48.6875 C-112.27367042 25.32087004 -91.17344031 8.87348346 -65 0 C-63.79988281 -0.41507812 -62.59976563 -0.83015625 -61.36328125 -1.2578125 C-42.70893603 -6.96356451 -18.368718 -6.35309044 0 0 Z M-27 7 C-27 18.22 -27 29.44 -27 41 C-14.46 41 -1.92 41 11 41 C6.57531894 32.045322 6.57531894 32.045322 0.8125 24.3125 C0.3369165 23.76215088 -0.13866699 23.21180176 -0.62866211 22.64477539 C-7.38919693 15.05948445 -15.27064909 10.01235672 -25 7 C-25.66 7 -26.32 7 -27 7 Z M-62 20 C-67.78183634 26.49929049 -72.08424772 33.16849543 -76 41 C-63.46 41 -50.92 41 -38 41 C-38 29.78 -38 18.56 -38 7 C-46.83437175 7 -56.03322174 14.0712267 -62 20 Z M-103.8125 36.5625 C-106.03061783 38.47094281 -106.03061783 38.47094281 -107 41 C-100.73 41 -94.46 41 -88 41 C-87.175 39.246875 -86.35 37.49375 -85.5 35.6875 C-82.71074096 30.07569721 -79.42570149 25.15949339 -75.63671875 20.1796875 C-73.97939011 18.10832137 -73.97939011 18.10832137 -73 16 C-83.16635315 16 -96.99400388 29.8524252 -103.8125 36.5625 Z M-116 52 C-124.51998608 67.01828054 -131 82.4202219 -131 100 C-121.1 100 -111.2 100 -101 100 C-100.7525 96.74125 -100.505 93.4825 -100.25 90.125 C-99.37863736 79.81644127 -97.53816775 70.01386494 -95 60 C-94.34 57.36 -93.68 54.72 -93 52 C-100.59 52 -108.18 52 -116 52 Z M-81 52 C-83.6241339 58.56033474 -85.77701594 64.28384453 -87.1875 71.0625 C-87.4340332 72.16948242 -87.4340332 72.16948242 -87.68554688 73.29882812 C-89.63090882 82.31680153 -90 90.67199826 -90 100 C-72.84 100 -55.68 100 -38 100 C-37.67 93.4 -37.34 86.8 -37 80 C-35 78 -35 78 -32.5 77.75 C-30 78 -30 78 -28 80 C-27.67 86.6 -27.34 93.2 -27 100 C-9.84 100 7.32 100 25 100 C25 92.9424819 24.93976204 86.66058016 23.8125 79.8125 C23.68375488 79.00949463 23.55500977 78.20648926 23.42236328 77.37915039 C21.95899154 68.8629303 19.88625438 59.77250875 16 52 C1.81 52 -12.38 52 -27 52 C-27.33 56.62 -27.66 61.24 -28 66 C-34.75 67.125 -34.75 67.125 -37 66 C-37.33 61.38 -37.66 56.76 -38 52 C-52.19 52 -66.38 52 -81 52 Z M28 52 C28.40992188 53.62164062 28.81984375 55.24328125 29.2421875 56.9140625 C32.79094809 71.35679475 35.01032399 85.15485982 36 100 C45.9 100 55.8 100 66 100 C66 82.41387359 59.61676158 67.07933277 51 52 C43.41 52 35.82 52 28 52 Z M-131 111 C-129.49024404 129.1170715 -124.77504526 143.20491854 -116 159 C-108.41 159 -100.82 159 -93 159 C-93.78375 155.968125 -94.5675 152.93625 -95.375 149.8125 C-98.63824334 136.87032222 -100.25419888 124.30011998 -101 111 C-110.9 111 -120.8 111 -131 111 Z M-90 111 C-90 118.0575181 -89.93976204 124.33941984 -88.8125 131.1875 C-88.68375488 131.99050537 -88.55500977 132.79351074 -88.42236328 133.62084961 C-86.95899154 142.1370697 -84.88625438 151.22749125 -81 159 C-66.81 159 -52.62 159 -38 159 C-38 143.16 -38 127.32 -38 111 C-55.16 111 -72.32 111 -90 111 Z M-27 111 C-27 126.84 -27 142.68 -27 159 C-12.81 159 1.38 159 16 159 C18.6241339 152.43966526 20.77701594 146.71615547 22.1875 139.9375 C22.35185547 139.19951172 22.51621094 138.46152344 22.68554688 137.70117188 C24.63090882 128.68319847 25 120.32800174 25 111 C7.84 111 -9.32 111 -27 111 Z M36 111 C35.773125 114.17625 35.54625 117.3525 35.3125 120.625 C34.34890751 132.37334766 31.90247615 143.59713433 29 155 C28.67 156.32 28.34 157.64 28 159 C35.59 159 43.18 159 51 159 C59.51998608 143.98171946 66 128.5797781 66 111 C56.1 111 46.2 111 36 111 Z M-107 170 C-97.6633131 180.89280138 -87.08171468 190.81982083 -73 195 C-73.36351562 194.53851563 -73.72703125 194.07703125 -74.1015625 193.6015625 C-79.84477422 186.15011345 -84.28774891 178.66191921 -88 170 C-94.27 170 -100.54 170 -107 170 Z M-76 170 C-71.57531894 178.954678 -71.57531894 178.954678 -65.8125 186.6875 C-65.3369165 187.23784912 -64.86133301 187.78819824 -64.37133789 188.35522461 C-57.61080307 195.94051555 -49.72935091 200.98764328 -40 204 C-39.34 204 -38.68 204 -38 204 C-38 192.78 -38 181.56 -38 170 C-50.54 170 -63.08 170 -76 170 Z M-27 170 C-27 181.22 -27 192.44 -27 204 C-8.26061438 198.37818431 1.74703684 187.71584353 11 171 C11 170.67 11 170.34 11 170 C-1.54 170 -14.08 170 -27 170 Z M23 170 C22.175 171.753125 21.35 173.50625 20.5 175.3125 C17.71074096 180.92430279 14.42570149 185.84050661 10.63671875 190.8203125 C8.97939011 192.89167863 8.97939011 192.89167863 8 195 C12.65586764 193.64262469 16.57675625 191.68619218 20.625 189.0625 C21.52653809 188.48121338 21.52653809 188.48121338 22.44628906 187.88818359 C29.64910967 183.09828896 37.17213531 177.24179703 42 170 C35.73 170 29.46 170 23 170 Z " fill="#442801" transform="translate(627,72)"/>
<path d="M0 0 C3.97030073 1.98515037 6.79026543 4.13296451 9 8 C9.2067334 9.12559326 9.4134668 10.25118652 9.62646484 11.41088867 C10.6829782 15.23718061 10.6829782 15.23718061 14.15087891 17.01293945 C15.49849005 17.57347378 16.85827848 18.10529174 18.2265625 18.61328125 C19.32417152 19.05750175 19.32417152 19.05750175 20.44395447 19.51069641 C22.82857369 20.46946149 25.22589516 21.39065885 27.625 22.3125 C29.27051675 22.96721424 30.91496521 23.62461964 32.55834961 24.28466797 C35.837709 25.59847441 39.1216968 26.89935466 42.41064453 28.18896484 C48.49769246 30.58123311 54.53103105 33.09603985 60.5625 35.625 C61.92979248 36.19021362 61.92979248 36.19021362 63.32470703 36.7668457 C81.16037911 44.16037911 81.16037911 44.16037911 83 46 C83.3125 48.875 83.3125 48.875 83 52 C81.375 53.9375 81.375 53.9375 79 55 C73.49727003 54.56964223 68.79239375 52.42954828 63.78125 50.28125 C62.89374054 49.90688309 62.00623108 49.53251617 61.09182739 49.14680481 C59.20077011 48.34833754 57.31091661 47.54701423 55.42218018 46.74307251 C52.49184092 45.49652919 49.55783501 44.25903829 46.62255859 43.02416992 C39.71231647 40.11544312 32.80384139 37.20252415 25.91113281 34.25244141 C22.81963767 32.92969264 19.72307164 31.61974049 16.625 30.3125 C15.78517578 29.94511719 14.94535156 29.57773437 14.08007812 29.19921875 C10.01253813 27.49314059 7.22901106 26.40851704 3 28 C2.32710937 28.34417969 1.65421875 28.68835938 0.9609375 29.04296875 C-2.53132807 30.74736131 -6.20533633 30.46276386 -10 30 C-12.01526169 29.03112419 -14.01833966 28.0358679 -16 27 C-20.13527104 27.45297864 -23.73580382 29.00551832 -27.5546875 30.59765625 C-28.19695786 30.86382751 -28.83922821 31.12999878 -29.5009613 31.40423584 C-30.89596835 31.98296601 -32.29011918 32.56376341 -33.6835022 33.14639282 C-35.90463417 34.07488791 -38.12810003 34.99756935 -40.35229492 35.91870117 C-43.54182254 37.24009041 -46.73050379 38.5634888 -49.91845703 39.88867188 C-57.84555679 43.18314103 -65.77647719 46.46824015 -73.7131958 49.73947144 C-76.28216049 50.79997543 -78.84884709 51.86586622 -81.41552734 52.93188477 C-83.0021591 53.58639012 -84.58890474 54.24061951 -86.17578125 54.89453125 C-86.89519394 55.19494324 -87.61460663 55.49535522 -88.3558197 55.80487061 C-91.87924846 57.2499113 -95.22820083 58.42623961 -99 59 C-98.9175 59.86625 -98.835 60.7325 -98.75 61.625 C-99.06693269 65.90359136 -100.28154063 67.7092334 -103 71 C-106.2907666 73.71845937 -108.09640864 74.93306731 -112.375 75.25 C-113.24125 75.1675 -114.1075 75.085 -115 75 C-115.1016748 75.66507568 -115.20334961 76.33015137 -115.30810547 77.01538086 C-116.1774075 80.7652811 -117.59406155 84.21253949 -119.0703125 87.75390625 C-119.38379135 88.51558609 -119.6972702 89.27726593 -120.02024841 90.06202698 C-120.69782835 91.70635824 -121.37752486 93.3498186 -122.05911255 94.99249268 C-123.13416495 97.584598 -124.20239125 100.17943031 -125.26928711 102.77490234 C-128.93491391 111.67751118 -132.65221548 120.55610806 -136.43359375 129.41015625 C-137.47502947 131.86159765 -138.51556906 134.31341751 -139.55584717 136.76535034 C-140.54904389 139.09345813 -141.55675837 141.41492361 -142.56494141 143.73657227 C-143.1702913 145.16002367 -143.77498315 146.58375517 -144.37890625 148.0078125 C-144.66140732 148.64570206 -144.94390839 149.28359161 -145.23497009 149.94081116 C-146.8064282 153.69681599 -147.29596712 156.10602242 -146 160 C-145.65582031 160.67289063 -145.31164062 161.34578125 -144.95703125 162.0390625 C-143.25263869 165.53132807 -143.53723614 169.20533633 -144 173 C-144.96887581 175.01526169 -145.9641321 177.01833966 -147 179 C-146.54681304 183.22133562 -144.9225959 186.90540894 -143.296875 190.80078125 C-142.88517815 191.79289612 -142.88517815 191.79289612 -142.46516418 192.80505371 C-141.8725752 194.23196482 -141.27801 195.65805652 -140.68167114 197.08340454 C-139.74063843 199.33489829 -138.80669716 201.58921162 -137.87475586 203.84448242 C-134.96501643 210.88223457 -132.0389436 217.91288449 -129.08908081 224.93391418 C-127.863536 227.85792211 -126.64838254 230.78617505 -125.4354248 233.71542358 C-124.85591145 235.10762116 -124.27155402 236.49781274 -123.68225098 237.88589478 C-122.8608371 239.82152891 -122.05573384 241.76321844 -121.25390625 243.70703125 C-120.79314697 244.8050708 -120.3323877 245.90311035 -119.85766602 247.03442383 C-118.93191679 250.23541327 -118.92670753 251.87250034 -120 255 C-122 257 -122 257 -125.40795898 257.02636719 C-129 256 -129 256 -130.95336914 253.26269531 C-131.45473389 252.04678711 -131.95609863 250.83087891 -132.47265625 249.578125 C-132.89793358 248.57824554 -132.89793358 248.57824554 -133.33180237 247.5581665 C-134.2488078 245.38247046 -135.12480259 243.19280756 -136 241 C-136.60714717 239.53364846 -137.21636897 238.06815424 -137.82763672 236.60351562 C-139.40809771 232.7925647 -140.95060945 228.96744604 -142.48165894 225.13641357 C-143.45820655 222.69830271 -144.44377978 220.26401452 -145.43188477 217.83056641 C-148.17487019 211.06882364 -150.90619779 204.30929869 -153.46875 197.4765625 C-153.98417358 196.14286621 -153.98417358 196.14286621 -154.51000977 194.78222656 C-155.1027106 193.24391906 -155.67327747 191.69677868 -156.21459961 190.13964844 C-157.29139289 187.39602895 -158.2642229 185.4036371 -160.89941406 183.95800781 C-163.00883123 183.14306195 -163.00883123 183.14306195 -165.09448242 182.59228516 C-169.25524622 181.29900995 -171.65718926 178.51421611 -174 175 C-174.71854066 169.88730685 -175.11099842 164.49235386 -172.97265625 159.6953125 C-170.23195323 156.15745209 -168.11771596 154.92974777 -163.734375 154.34375 C-160.08209866 153.1779639 -159.10771775 152.17442339 -157.05834961 148.85595703 C-155.01941056 144.54519528 -153.36217989 140.08647872 -151.6875 135.625 C-151.04707128 133.99387134 -150.40323408 132.3640771 -149.75610352 130.7355957 C-148.4452393 127.42692665 -147.15089092 124.11253194 -145.86914062 120.79248047 C-143.66553506 115.10779828 -141.32914302 109.48195536 -138.97436523 103.85864258 C-137.48548951 100.30213357 -136.01556599 96.73836268 -134.55078125 93.171875 C-133.01531397 89.43956074 -131.45716218 85.71997193 -129.85546875 82.015625 C-129.55519775 81.30768799 -129.25492676 80.59975098 -128.94555664 79.87036133 C-128.20536025 78.12679251 -127.45117614 76.38917796 -126.6953125 74.65234375 C-125.7469516 72.04844044 -125.7469516 72.04844044 -126.79296875 69.765625 C-127.19128906 69.18296875 -127.58960938 68.6003125 -128 68 C-130.56846503 63.26861705 -130.21726258 59.1034861 -129 54 C-126.73817777 49.20493687 -123.96745244 46.7535067 -119.22265625 44.625 C-115.39884916 43.54976426 -111.77321337 43.81555144 -108 45 C-107.39335007 45.53061539 -106.78670013 46.06123077 -106.16166687 46.60792542 C-104.10954082 48.24747499 -104.10954082 48.24747499 -101.75105286 47.77061462 C-100.95382309 47.49173904 -100.15659332 47.21286346 -99.33520508 46.92553711 C-98.45402008 46.62283905 -97.57283508 46.32014099 -96.66494751 46.00827026 C-92.61975931 44.47779247 -88.61477294 42.88921001 -84.63671875 41.19140625 C-83.773918 40.82852509 -82.91111725 40.46564392 -82.02217102 40.09176636 C-79.24154056 38.92094671 -76.46416516 37.7426904 -73.6875 36.5625 C-69.83807633 34.92770617 -65.98795589 33.29457989 -62.13671875 31.6640625 C-60.7103157 31.05953499 -60.7103157 31.05953499 -59.25509644 30.4427948 C-53.48483843 28.00962866 -47.68524768 25.68632251 -41.83203125 23.4609375 C-39.84019602 22.69043231 -37.84908986 21.91806779 -35.85806274 21.14547729 C-34.04536582 20.45478573 -32.21938373 19.79928412 -30.39331055 19.14477539 C-24.65572821 17.09680944 -24.65572821 17.09680944 -20.70922852 12.76611328 C-19.89931474 10.39644789 -19.89931474 10.39644789 -19.53344727 8.07055664 C-18.58968191 4.40736488 -16.03503153 3.06640444 -13 1 C-9.05349633 -0.97325184 -4.30133287 -0.44349901 0 0 Z M-6 10 C-7.32 10.99 -8.64 11.98 -10 13 C-9.62095792 16.29075996 -9.62095792 16.29075996 -8 19 C-5.54207971 19.33343551 -5.54207971 19.33343551 -3 19 C-0.77261893 16.31328252 -0.77261893 16.31328252 -1.125 13.9375 C-2.2586993 11.42716583 -3.48618938 10.97308798 -6 10 Z M-118 57 C-118.04080783 58.99958364 -118.04254356 61.00045254 -118 63 C-115.09926819 63.67801034 -115.09926819 63.67801034 -112 64 C-111.34 63.34 -110.68 62.68 -110 62 C-110.32198966 58.90073181 -110.32198966 58.90073181 -111 56 C-114.80621045 55.56152641 -114.80621045 55.56152641 -118 57 Z M-161 164 C-162.71711243 166.44496043 -162.71711243 166.44496043 -164 169 C-163.01 170.32 -162.02 171.64 -161 173 C-157.70924004 172.62095792 -157.70924004 172.62095792 -155 171 C-154.66656449 168.54207971 -154.66656449 168.54207971 -155 166 C-157.81509993 163.7226499 -157.81509993 163.7226499 -161 164 Z " fill="#442801" transform="translate(600,9)"/>
<path d="M0 0 C4.84460635 2.33258824 7.52487205 5.24013856 10 10 C10.25 13.375 10.25 13.375 10 16 C10.66507568 16.1016748 11.33015137 16.20334961 12.01538086 16.30810547 C15.7652811 17.1774075 19.21253949 18.59406155 22.75390625 20.0703125 C23.51558609 20.38379135 24.27726593 20.6972702 25.06202698 21.02024841 C26.70635824 21.69782835 28.3498186 22.37752486 29.99249268 23.05911255 C32.584598 24.13416495 35.17943031 25.20239125 37.77490234 26.26928711 C46.67751118 29.93491391 55.55610806 33.65221548 64.41015625 37.43359375 C66.86159765 38.47502947 69.31341751 39.51556906 71.76535034 40.55584717 C74.09345813 41.54904389 76.41492361 42.55675837 78.73657227 43.56494141 C80.16002367 44.1702913 81.58375517 44.77498315 83.0078125 45.37890625 C83.64570206 45.66140732 84.28359161 45.94390839 84.94081116 46.23497009 C88.69681599 47.8064282 91.10602242 48.29596712 95 47 C95.67289063 46.65582031 96.34578125 46.31164062 97.0390625 45.95703125 C100.53132807 44.25263869 104.20533633 44.53723614 108 45 C110.01526169 45.96887581 112.01833966 46.9641321 114 48 C118.33635677 47.54246164 122.24451622 45.82648388 126.24609375 44.18359375 C126.95791306 43.8951358 127.66973236 43.60667786 128.40312195 43.30947876 C130.74978801 42.35668708 133.0936473 41.39718935 135.4375 40.4375 C137.07333229 39.77187544 138.7092384 39.10643228 140.34521484 38.44116211 C149.18704986 34.83673772 158.00140786 31.17065027 166.79296875 27.4453125 C168.09949654 26.89216118 168.09949654 26.89216118 169.43241882 26.32783508 C173.65851662 24.53707789 177.88123024 22.73887753 182.09936523 20.92944336 C183.63130249 20.27707491 185.16328262 19.62480714 186.6953125 18.97265625 C187.39363693 18.67026031 188.09196136 18.36786438 188.81144714 18.05630493 C191.71535359 16.82486051 193.81026309 16 197 16 C196.9175 15.13375 196.835 14.2675 196.75 13.375 C197.15004076 7.97444981 199.70124769 5.17506161 203.625 1.625 C208.19844549 -0.57702931 212.00953476 -0.80465156 217 0 C221.36872308 2.18436154 224.48211211 4.80352018 227 9 C228.41547619 13.76695852 228.47626057 17.74021687 226.4375 22.3125 C223.92782409 26.61235428 220.94128379 29.13738317 216.08203125 30.5625 C210.83308077 31.53716005 207.69552113 30.39379509 203 28 C199.56074282 26.85358094 199.10521277 27.09599141 195.9140625 28.44921875 C195.08124756 28.79637939 194.24843262 29.14354004 193.39038086 29.5012207 C192.47780518 29.89269287 191.56522949 30.28416504 190.625 30.6875 C188.61850588 31.52868472 186.6119946 32.36982848 184.60546875 33.2109375 C182.99744385 33.8910791 182.99744385 33.8910791 181.35693359 34.58496094 C176.76577009 36.52026157 172.16029788 38.42011697 167.55371094 40.31835938 C165.13143518 41.31919165 162.71152238 42.32576107 160.29394531 43.33789062 C154.51378133 45.75622902 148.72645709 48.12700244 142.86384583 50.3394928 C140.17374322 51.35741102 137.49344117 52.39983482 134.81350708 53.44418335 C133.53421217 53.93472642 132.25022928 54.41323538 130.9616394 54.8788147 C123.7934742 57.19652497 123.7934742 57.19652497 118.64770508 62.26025391 C117.84208082 64.62510026 117.84208082 64.62510026 117.50268555 66.94262695 C116.60750785 70.60637754 114.01968405 71.9440449 111 74 C107.05349633 75.97325184 102.30133287 75.44349901 98 75 C94.02969927 73.01484963 91.20973457 70.86703549 89 67 C88.78456543 65.87078125 88.56913086 64.7415625 88.34716797 63.578125 C87.32585463 59.79692402 87.32585463 59.79692402 84.03955078 58.06640625 C82.76906396 57.53802602 81.48635388 57.03845652 80.1953125 56.5625 C79.4963385 56.27993347 78.7973645 55.99736694 78.07720947 55.70623779 C75.76885275 54.77929077 73.4477996 53.89006187 71.125 53 C69.51144664 52.35982665 67.89899097 51.71688024 66.28759766 51.07128906 C62.91642618 49.72272078 59.54072894 48.38642792 56.16210938 47.05664062 C51.06306198 45.03849844 46.00426896 42.93167838 40.953125 40.796875 C40.14442963 40.45563599 39.33573425 40.11439697 38.50253296 39.76281738 C35.3634784 38.43733046 32.22503425 37.11042124 29.08795166 35.78027344 C19.24670042 31.60571201 19.24670042 31.60571201 9.2265625 27.890625 C8.49260254 27.63829102 7.75864258 27.38595703 7.00244141 27.12597656 C4.16702548 26.94759634 3.10234947 28.20109092 1 30 C-3.66670022 31.46492281 -7.83726032 31.44508416 -12.3125 29.4375 C-16.06661034 27.23887761 -18.11686081 24.99225508 -20 21 C-21.14902793 16.55549612 -21.37278772 13.14029186 -19.9375 8.75 C-14.64091154 1.23226154 -8.99880187 -0.98294605 0 0 Z M-9 12 C-9.04254356 13.99954746 -9.04080783 16.00041636 -9 18 C-7.87465895 19.35618499 -7.87465895 19.35618499 -4.9375 19.0625 C-3.968125 19.041875 -2.99875 19.02125 -2 19 C-1.32198966 16.09926819 -1.32198966 16.09926819 -1 13 C-1.66 12.34 -2.32 11.68 -3 11 C-6.7763932 10.7018576 -6.7763932 10.7018576 -9 12 Z M210 11 C209.34 11.66 208.68 12.32 208 13 C208.32198966 16.09926819 208.32198966 16.09926819 209 19 C210.99954746 19.04254356 213.00041636 19.04080783 215 19 C216.35618499 17.87465895 216.35618499 17.87465895 216.0625 14.9375 C216.041875 13.968125 216.02125 12.99875 216 12 C213.09926819 11.32198966 213.09926819 11.32198966 210 11 Z M101 56 C98.77261893 58.68671748 98.77261893 58.68671748 99.125 61.0625 C100.2586993 63.57283417 101.48618938 64.02691202 104 65 C105.32 64.01 106.64 63.02 108 62 C107.62095792 58.70924004 107.62095792 58.70924004 106 56 C103.54207971 55.66656449 103.54207971 55.66656449 101 56 Z " fill="#442801" transform="translate(491,271)"/>
<path d="M0 0 C3.08958043 3.14664392 4.43094667 6.41727313 4.53515625 10.81640625 C4.08327805 16.79888066 4.08327805 16.79888066 1.88842773 19.38012695 C0.2766954 21.35643094 0.2766954 21.35643094 0.58666992 23.47070312 C3.55492784 32.15979701 7.17528906 40.57333813 10.79296875 49.0078125 C12.23998739 52.38804573 13.68413383 55.76948323 15.125 59.15234375 C15.48969391 60.00798416 15.85438782 60.86362457 16.23013306 61.74519348 C18.71524238 67.61020723 21.07143083 73.51567368 23.3671875 79.45703125 C24.2806926 81.78990823 25.19601848 84.12206392 26.11166382 86.45410156 C26.68710107 87.93852715 27.25222892 89.42699381 27.80654907 90.91943359 C30.38837473 98.85566077 30.38837473 98.85566077 35.56298828 105.01416016 C37.93209219 105.96139218 37.93209219 105.96139218 41.48046875 106.5078125 C44.62986741 108.69869853 46.34680951 110.30732365 48.48046875 113.5078125 C49.10770047 118.45303944 49.60399605 123.93768352 47.5703125 128.58984375 C44.87251195 132.01631068 41.45960055 133.8992273 37.48046875 135.5078125 C36.82691406 135.55389648 36.17335938 135.59998047 35.5 135.64746094 C32.71791834 136.83267077 32.17022049 138.6729085 31.04681396 141.36911011 C30.77742004 142.05941315 30.50802612 142.74971619 30.23046875 143.4609375 C29.93545471 144.18064728 29.64044067 144.90035706 29.33648682 145.64187622 C28.37021042 148.00833383 27.42553031 150.38281261 26.48046875 152.7578125 C25.81761588 154.39076071 25.15321521 156.02308145 24.48730469 157.65478516 C23.13186994 160.98141492 21.78429217 164.31105345 20.44335938 167.64355469 C17.83502687 174.1195362 15.17122627 180.57230444 12.49951172 187.02233887 C11.74628495 188.84454986 10.99808751 190.66883719 10.25 192.49316406 C9.79496094 193.59885742 9.33992187 194.70455078 8.87109375 195.84375 C8.47954102 196.79813965 8.08798828 197.7525293 7.68457031 198.73583984 C7.2872168 199.65059082 6.88986328 200.5653418 6.48046875 201.5078125 C6.0122168 202.59658691 5.54396484 203.68536133 5.06152344 204.80712891 C4.53977539 205.69835449 4.01802734 206.58958008 3.48046875 207.5078125 C-0.20703125 208.3828125 -0.20703125 208.3828125 -3.51953125 208.5078125 C-5.08203125 206.8828125 -5.08203125 206.8828125 -6.51953125 204.5078125 C-6.11335154 199.67106152 -4.4563824 195.48373574 -2.5625 191.06640625 C-2.26305984 190.35372589 -1.96361969 189.64104553 -1.65510559 188.9067688 C-1.01171433 187.37751454 -0.36544215 185.8494697 0.28344727 184.32254028 C1.30195234 181.92415787 2.31133862 179.5221214 3.31835938 177.11889648 C6.28482172 170.0463596 9.27263182 162.9832501 12.29289246 155.93351746 C13.43034744 153.27310152 14.55814912 150.60866075 15.68417358 147.94338989 C16.46679902 146.102467 17.26416138 144.26783156 18.06176758 142.43334961 C18.76402466 140.77057983 18.76402466 140.77057983 19.48046875 139.07421875 C20.09921875 137.63477905 20.09921875 137.63477905 20.73046875 136.16625977 C21.7853568 132.42710742 21.18185132 129.87905482 19.4375 126.46875 C17.73310744 122.97648443 18.01770489 119.30247617 18.48046875 115.5078125 C19.44934456 113.49255081 20.44460085 111.48947284 21.48046875 109.5078125 C21.02749011 105.37254146 19.47495043 101.77200868 17.8828125 97.953125 C17.61664124 97.31085464 17.35046997 96.66858429 17.07623291 96.0068512 C16.49750274 94.61184415 15.91670534 93.21769332 15.33407593 91.8243103 C14.40558084 89.60317833 13.4828994 87.37971247 12.56176758 85.15551758 C11.24037834 81.96598996 9.91697995 78.77730871 8.59179688 75.58935547 C5.29732772 67.66225571 2.0122286 59.73133531 -1.25900269 51.7946167 C-2.31950668 49.22565201 -3.38539747 46.65896541 -4.45141602 44.09228516 C-5.10592137 42.5056534 -5.76015076 40.91890776 -6.4140625 39.33203125 C-6.71447449 38.61261856 -7.01488647 37.89320587 -7.32440186 37.1519928 C-8.76944255 33.62856404 -9.94577086 30.27961167 -10.51953125 26.5078125 C-11.81890625 26.6315625 -11.81890625 26.6315625 -13.14453125 26.7578125 C-18.54508144 26.35777174 -21.34446964 23.80656481 -24.89453125 19.8828125 C-27.09656056 15.30936701 -27.32418281 11.49827774 -26.51953125 6.5078125 C-24.08821003 1.64517007 -20.73404294 -2.0511995 -15.70703125 -4.3046875 C-9.49386544 -4.83724457 -4.8564554 -3.88960959 0 0 Z M-14.51953125 7.5078125 C-15.19754159 10.40854431 -15.19754159 10.40854431 -15.51953125 13.5078125 C-14.85953125 14.1678125 -14.19953125 14.8278125 -13.51953125 15.5078125 C-10.42026306 15.18582284 -10.42026306 15.18582284 -7.51953125 14.5078125 C-7.47698769 12.50826504 -7.47872342 10.50739614 -7.51953125 8.5078125 C-8.6448723 7.15162751 -8.6448723 7.15162751 -11.58203125 7.4453125 C-12.55140625 7.4659375 -13.52078125 7.4865625 -14.51953125 7.5078125 Z M29.48046875 117.5078125 C28.98046875 120.0078125 28.98046875 120.0078125 29.48046875 122.5078125 C32.16718623 124.73519357 32.16718623 124.73519357 34.54296875 124.3828125 C37.05330292 123.2491132 37.50738077 122.02162312 38.48046875 119.5078125 C37.18579198 117.44790772 37.18579198 117.44790772 35.48046875 115.5078125 C32.29556868 115.2304624 32.29556868 115.2304624 29.48046875 117.5078125 Z " fill="#442801" transform="translate(714.51953125,57.4921875)"/>
<path d="M0 0 C-1.30774714 3.40536295 -2.78058592 6.61771787 -4.49609375 9.8359375 C-4.97240234 10.73570313 -5.44871094 11.63546875 -5.93945312 12.5625 C-6.93404616 14.42979331 -7.92883619 16.29698171 -8.92382812 18.1640625 C-9.40142578 19.06640625 -9.87902344 19.96875 -10.37109375 20.8984375 C-10.80349365 21.70974121 -11.23589355 22.52104492 -11.68139648 23.35693359 C-13.13475658 26.08619154 -13.13475658 26.08619154 -14.08691406 29.57446289 C-16.82612986 34.47925319 -20.06428545 35.22041108 -25.23828125 36.91015625 C-26.17529877 37.240121 -27.11231628 37.57008575 -28.07772827 37.91004944 C-31.14804917 38.98547309 -34.22953755 40.02393518 -37.3125 41.0625 C-39.43363797 41.79726113 -41.55383181 42.53475319 -43.6730957 43.27490234 C-46.91381494 44.40608332 -50.15514439 45.53504389 -53.40013123 46.65393066 C-60.44950651 49.08721018 -67.45272746 51.62045938 -74.4296875 54.25390625 C-75.30983017 54.58509964 -76.18997284 54.91629303 -77.0967865 55.25752258 C-80.44649717 56.51956042 -83.79536635 57.78346108 -87.13833618 59.06326294 C-89.40511532 59.92945893 -91.67648388 60.78239231 -93.94921875 61.6328125 C-94.61061859 61.8902272 -95.27201843 62.14764191 -95.95346069 62.41285706 C-98.50922545 63.35957479 -100.57542339 64.03155788 -103.31567383 63.82788086 C-106.3097855 62.35621356 -107.49611202 59.27785093 -109 56.4375 C-109.33 55.84130859 -109.66 55.24511719 -110 54.63085938 C-111.78454329 51.37894748 -113.47043281 48.08165374 -115.125 44.76196289 C-115.47820312 44.0538295 -115.83140625 43.34569611 -116.1953125 42.61610413 C-116.46085937 42.08278976 -116.72640625 41.5494754 -117 41 C-99.51387656 34.38568242 -81.9612508 27.9676883 -64.375 21.625 C-59.26392396 19.78105208 -54.15322925 17.93605061 -49.04296875 16.08984375 C-47.81308731 15.64556534 -46.58320587 15.20128693 -45.3160553 14.74354553 C-38.4448126 12.25770951 -31.58369602 9.74749045 -24.73828125 7.19140625 C-24.01741333 6.92301941 -23.29654541 6.65463257 -22.55383301 6.37811279 C-19.41843062 5.21019069 -16.2865712 4.03484185 -13.15966797 2.84423828 C-12.12084473 2.45606934 -11.08202148 2.06790039 -10.01171875 1.66796875 C-9.15022217 1.34078857 -8.28872559 1.0136084 -7.40112305 0.67651367 C-4.82867321 -0.04827113 -2.65928125 -0.12677382 0 0 Z " fill="#46B449" transform="translate(451,86)"/>
<path d="M0 0 C2 2 2 2 2.22705078 3.87939453 C2.21657715 4.62302246 2.20610352 5.36665039 2.1953125 6.1328125 C2.18886719 6.93847656 2.18242188 7.74414062 2.17578125 8.57421875 C2.15902344 9.41597656 2.14226563 10.25773438 2.125 11.125 C2.11597656 11.97449219 2.10695313 12.82398438 2.09765625 13.69921875 C2.07405647 15.79959884 2.03818483 17.89983444 2 20 C0.68 19.67 -0.64 19.34 -2 19 C-2.33 15.37 -2.66 11.74 -3 8 C-2.34 8 -1.68 8 -1 8 C-0.67 5.36 -0.34 2.72 0 0 Z " fill="#445819" transform="translate(52,227)"/>
</svg>
